<svg width="60" height="60" viewBox="0 0 60 60" fill="none" xmlns="http://www.w3.org/2000/svg">
<g clip-path="url(#clip0_2695_2946)">
<path d="M30 60C46.5685 60 60 46.5685 60 30C60 13.4315 46.5685 0 30 0C13.4315 0 0 13.4315 0 30C0 46.5685 13.4315 60 30 60Z" fill="black"/>
<path d="M56.6279 18.0155C60.6855 13.958 60.6855 7.37941 56.6279 3.32186C52.5704 -0.735684 45.9918 -0.735686 41.9342 3.32186C37.8767 7.37941 37.8767 13.958 41.9342 18.0155C45.9918 22.0731 52.5704 22.0731 56.6279 18.0155Z" fill="white"/>
<path d="M44.1301 6.17006C44.0701 6.15006 44.0101 6.11006 43.9701 6.06006C43.9101 6.08006 43.8501 6.11006 43.7801 6.14006C43.4501 6.27006 42.9401 6.53006 42.3401 6.99006C42.0401 7.22006 41.7501 7.48006 41.4901 7.76006C41.8701 7.39006 42.2901 7.07006 42.7601 6.78006C43.2101 6.51006 43.6801 6.30006 44.1301 6.17006Z" fill="#EC2227"/>
<path d="M41.7101 9.53996C41.7101 9.53996 41.7101 9.54996 41.7201 9.55996C41.8401 9.67996 42.4701 9.72996 43.1401 9.60996C43.6501 9.55996 44.7001 9.21996 45.0401 8.88996C45.0901 8.83996 45.1001 8.80996 45.1101 8.79996C45.1101 8.77996 45.0901 8.72996 44.9701 8.68996C44.6701 8.56996 44.1301 8.55996 43.5201 8.64996C42.8201 8.75996 42.0601 9.14996 41.7801 9.44996C41.7301 9.50996 41.7101 9.52996 41.7101 9.53996Z" fill="#EC2227"/>
<path d="M45.3901 10.94L45.4201 10.84H45.3901C44.6901 11.16 43.9301 11.47 43.0801 11.67C42.6301 11.79 42.1701 11.83 41.7701 11.78C41.6601 11.77 41.5501 11.74 41.4501 11.72C41.5401 11.75 41.6401 11.77 41.7301 11.78C42.0201 11.83 42.3401 11.83 42.6801 11.78C43.0001 11.73 43.3301 11.65 43.6501 11.58H43.7001C44.3001 11.42 44.8801 11.26 45.3301 11.12C45.3501 11.06 45.3701 11 45.3901 10.94Z" fill="#EC2227"/>
<path d="M43.0801 11.3C43.7901 11.15 44.5501 10.92 45.3301 10.62C45.3901 10.6 45.4501 10.57 45.5101 10.55L45.5401 10.44C45.5401 10.44 45.5501 10.4 45.5701 10.33C44.8401 10.7 44.1501 10.97 43.5001 11.14C43.2901 11.2 43.0801 11.25 42.8901 11.28C42.8201 11.29 42.7501 11.3 42.6901 11.31H42.6501L42.5801 11.32C42.5101 11.33 42.4401 11.33 42.3701 11.33H42.3501C42.3501 11.33 42.3001 11.33 42.2801 11.33H42.2301C41.9501 11.33 41.6801 11.29 41.4501 11.22C41.5901 11.27 41.7301 11.31 41.8901 11.34C42.2601 11.4 42.6601 11.38 43.0801 11.28V11.3Z" fill="#EC2227"/>
<path d="M43.5501 8.31006C44.2101 8.20006 45.0901 8.18006 45.3601 8.49006C45.4401 8.58006 45.4601 8.69006 45.4301 8.82006C45.4001 8.92006 45.3301 9.03006 45.2301 9.13006C44.7901 9.56006 43.6601 9.91006 43.1101 9.96006C42.9701 9.98006 42.6501 10.0201 42.3301 10.0201C42.2401 10.0201 42.1501 10.0201 42.0701 10.0101C42.1901 10.0301 42.3101 10.0301 42.4101 10.0401H42.5401C42.8501 10.0401 43.1101 10.0201 43.3701 9.98006C43.6801 9.93006 44.0001 9.84006 44.3601 9.70006C44.8201 9.52006 45.3001 9.28006 45.7901 8.99006C45.7801 8.74006 45.7101 8.54006 45.6001 8.40006C45.4501 8.21006 45.2101 8.10006 44.9001 8.08006L44.7701 8.06006H44.4001C44.3401 8.08006 44.2801 8.09006 44.2101 8.10006H44.1901C44.0801 8.12006 43.9701 8.13006 43.8701 8.15006C43.5801 8.20006 43.2301 8.32006 42.8201 8.52006C43.0501 8.44006 43.3001 8.37006 43.5501 8.32006V8.31006Z" fill="#EC2227"/>
<path d="M43.51 10.79C44.47 10.56 45.22 10.25 45.58 10.08C45.6 10.07 45.63 10.06 45.65 10.04C45.66 10 45.67 9.95004 45.68 9.91004C45.69 9.87004 45.7 9.83004 45.71 9.79004C45.08 10.16 44.5 10.43 43.95 10.61C43.56 10.74 43.17 10.83 42.8 10.89C42.52 10.93 42.26 10.93 42.02 10.91C42.13 10.93 42.24 10.94 42.36 10.94C42.55 10.94 42.73 10.94 42.92 10.9L42.94 10.94V10.9C43.14 10.86 43.32 10.83 43.51 10.79Z" fill="#EC2227"/>
<path d="M44.4201 10.04C44.0301 10.21 43.6701 10.32 43.3401 10.39C43.0901 10.44 42.8501 10.47 42.6101 10.49C42.6901 10.49 42.7701 10.49 42.8501 10.48C43.2001 10.44 43.5701 10.37 43.9301 10.26C44.6901 10.04 45.3401 9.72002 45.7601 9.49002C45.7701 9.41002 45.7801 9.34002 45.7801 9.27002C45.4401 9.49002 44.9601 9.79002 44.4101 10.03L44.4201 10.04Z" fill="#EC2227"/>
<path d="M45.6101 11.03C45.7201 10.99 45.8501 10.94 45.9701 10.9C46.0201 10.76 46.06 10.63 46.09 10.53L46.0201 10.56C45.9101 10.62 45.78 10.68 45.64 10.74L45.6 10.87L45.55 11.05L45.6 11.03H45.6101Z" fill="#EC2227"/>
<path d="M43.9401 7.65995C44.1401 7.62995 44.3001 7.61995 44.4801 7.59995H44.5101H44.9201L45.0601 7.61995C45.4301 7.66995 45.7301 7.83995 45.9101 8.10995C46.0301 8.27995 46.1001 8.49995 46.1101 8.77995C46.1901 8.71995 46.3001 8.63995 46.4201 8.55995C46.3801 8.26995 46.2801 8.01995 46.1101 7.84995C45.9001 7.63995 45.6101 7.51995 45.2601 7.49995C45.1401 7.47995 45.0001 7.48995 44.8801 7.49995C44.8101 7.49995 44.7401 7.50995 44.6801 7.50995C44.5401 7.52995 44.3701 7.55995 44.2101 7.58995L44.0601 7.61995C43.9201 7.64995 43.7701 7.68995 43.6101 7.73995C43.7201 7.70995 43.8301 7.68995 43.9401 7.66995V7.65995Z" fill="#EC2227"/>
<path d="M46.1701 10.26C46.2001 10.17 46.2201 10.08 46.2501 9.98995V9.94995C46.1201 10.04 45.9801 10.13 45.8301 10.21C45.7901 10.32 45.7601 10.42 45.7401 10.47H45.7701C45.8601 10.41 46.0001 10.34 46.1601 10.26H46.1701Z" fill="#EC2227"/>
<path d="M45.9301 9.91C46.0501 9.84 46.1801 9.77001 46.3301 9.68001C46.3401 9.63001 46.3501 9.58 46.3601 9.53C46.3701 9.48 46.3801 9.43 46.3901 9.38C46.2801 9.45 46.1601 9.53 46.0101 9.62C45.9901 9.73 45.9601 9.82 45.9301 9.91Z" fill="#EC2227"/>
<path d="M46.1001 9.06997C46.1001 9.06997 46.1001 9.07997 46.1001 9.08997C46.1001 9.15997 46.0801 9.23997 46.0701 9.32997C46.1701 9.26997 46.2601 9.21997 46.3301 9.16997L46.4101 9.11997C46.4201 9.02997 46.4201 8.92997 46.4301 8.83997C46.3501 8.89997 46.2701 8.95997 46.1801 9.01997L46.1001 9.07997V9.06997Z" fill="#EC2227"/>
<path d="M46.5501 10.69L46.6401 10.66C46.6901 10.5 46.7401 10.36 46.7801 10.25C46.6501 10.3 46.5201 10.35 46.4101 10.4L46.3201 10.44L46.2901 10.52C46.2701 10.62 46.2401 10.72 46.2101 10.81C46.2701 10.79 46.3101 10.77 46.3301 10.77C46.3901 10.75 46.4701 10.72 46.5501 10.69Z" fill="#EC2227"/>
<path d="M46.42 10.14L46.5 10.1C46.62 10.04 46.75 9.98002 46.89 9.92002C46.89 9.89002 46.9 9.86002 46.91 9.83002C46.93 9.74002 46.96 9.64002 46.98 9.52002C46.91 9.57002 46.83 9.60002 46.77 9.65002C46.71 9.69002 46.62 9.74002 46.53 9.79002C46.49 9.93002 46.45 10.06 46.42 10.14Z" fill="#EC2227"/>
<path d="M46.9201 7.66005L46.7901 7.45005C46.7901 7.45005 46.7301 7.38005 46.7001 7.34005C46.6801 7.32005 46.6501 7.29005 46.6301 7.27005C46.3601 7.04005 46.0101 6.92005 45.6201 6.91005C45.4701 6.89005 45.3101 6.91005 45.1601 6.92005C45.0901 6.92005 45.0201 6.93005 44.9501 6.94005C44.8101 6.96005 44.6501 6.99005 44.5001 7.02005C44.4101 7.04005 44.3201 7.06005 44.2301 7.08005C44.0601 7.12005 43.8801 7.17005 43.7001 7.23005C43.8401 7.18005 43.9801 7.15005 44.1301 7.12005C44.2001 7.11005 44.2601 7.10005 44.3201 7.09005H44.3401C44.4901 7.06005 44.6301 7.04005 44.7801 7.03005C44.8401 7.03005 44.8901 7.03005 44.9301 7.03005H44.9801C45.0401 7.03005 45.1001 7.03005 45.1501 7.03005C45.2601 7.03005 45.3501 7.03005 45.4201 7.05005C45.8201 7.08005 46.1801 7.25005 46.4101 7.54005C46.6201 7.79005 46.7001 8.10005 46.7201 8.35005C46.7801 8.31005 46.8301 8.28005 46.8701 8.24005L46.9201 8.21005C46.9801 8.17005 47.0301 8.14005 47.0601 8.12005C47.0401 7.98005 46.9901 7.85005 46.9401 7.71005L46.9201 7.66005Z" fill="#EC2227"/>
<path d="M47.0501 9.13004C47.0601 9.06004 47.0701 8.99004 47.0801 8.92004C46.9901 8.98004 46.8901 9.04004 46.8001 9.11004L46.6701 9.19004C46.6501 9.30004 46.6301 9.40004 46.6001 9.52004C46.6301 9.50004 46.6601 9.48004 46.6801 9.47004C46.7701 9.41004 46.8801 9.34004 47.0301 9.25004C47.0301 9.21004 47.0401 9.18004 47.0501 9.13004Z" fill="#EC2227"/>
<path d="M46.8801 8.51L46.7401 8.60999C46.7401 8.70999 46.7301 8.81 46.7201 8.91C46.8201 8.85 46.9201 8.78 47.0101 8.72L47.1001 8.66C47.1001 8.57 47.1001 8.47 47.1001 8.37C47.0301 8.42 46.9601 8.46 46.8901 8.51H46.8801Z" fill="#EC2227"/>
<path d="M46.8901 10.57C47.0301 10.52 47.1901 10.46 47.3601 10.4L47.4501 9.98999C47.2901 10.05 47.1401 10.11 47.0001 10.16C46.9801 10.24 46.9401 10.38 46.8901 10.57Z" fill="#EC2227"/>
<path d="M47.1101 9.80005V9.82005C47.2501 9.75005 47.3901 9.69005 47.5201 9.63005L47.5701 9.42005C47.5801 9.34005 47.6001 9.26005 47.6201 9.18005C47.5501 9.21005 47.4901 9.25005 47.4301 9.27005C47.3701 9.31005 47.3001 9.34005 47.2401 9.38005C47.2001 9.55005 47.1601 9.69005 47.1201 9.80005H47.1101Z" fill="#EC2227"/>
<path d="M47.73 8.5C47.6 8.58 47.4701 8.66 47.3601 8.73C47.3501 8.85 47.32 8.97 47.3 9.08C47.31 9.08 47.3201 9.07 47.3301 9.06C47.4401 9 47.55 8.93 47.67 8.87C47.69 8.74 47.71 8.62 47.73 8.5Z" fill="#EC2227"/>
<path d="M44.3101 6.60994C44.3901 6.59994 44.4701 6.57994 44.5501 6.55994H44.5701C44.7201 6.51994 44.8901 6.48994 45.0501 6.47994C45.1201 6.47994 45.1901 6.47994 45.2601 6.46994C45.3501 6.46994 45.4501 6.45994 45.5501 6.45994C45.6301 6.45994 45.7101 6.45994 45.7901 6.47994C46.2401 6.49994 46.6401 6.66994 46.9401 6.96994C46.9601 6.99994 46.9901 7.01994 47.0001 7.03994C47.0501 7.08994 47.1001 7.13994 47.1301 7.20994L47.2601 7.45994V7.50994C47.3101 7.64994 47.3501 7.77994 47.3701 7.92994C47.4801 7.85994 47.5901 7.77994 47.7201 7.68994C47.7201 7.67994 47.7201 7.66994 47.7201 7.65994C47.6301 7.26994 47.4201 6.94994 47.1401 6.73994C46.8401 6.50994 46.4301 6.37994 45.9501 6.36994C45.7301 6.35994 45.4901 6.36994 45.2001 6.41994C44.9501 6.45994 44.6901 6.50994 44.4101 6.57994C44.2201 6.61994 44.0301 6.67994 43.8301 6.74994C44.0001 6.69994 44.1601 6.64994 44.3301 6.61994L44.3101 6.60994Z" fill="#EC2227"/>
<path d="M47.3801 8.46004L47.7701 8.20004V8.10004C47.7701 8.04004 47.7701 7.98004 47.7601 7.92004C47.6201 8.01004 47.5001 8.10004 47.3901 8.17004C47.3901 8.27004 47.3901 8.37004 47.3901 8.46004H47.3801Z" fill="#EC2227"/>
<path d="M48.1 7.97998C48.08 7.88998 48.06 7.80998 48.04 7.72998C48.05 7.81998 48.05 7.91998 48.06 7.99998L48.1 7.97998Z" fill="#EC2227"/>
<path d="M48.1501 8.23999C48.1501 8.23999 48.0801 8.27999 48.0501 8.29999C48.0501 8.42999 48.0301 8.55999 48.0101 8.67999C48.0701 8.64999 48.1301 8.61999 48.1901 8.58999C48.1801 8.46999 48.1701 8.34999 48.1501 8.24999V8.23999Z" fill="#EC2227"/>
<path d="M48.1801 10.12V10.07C48.1901 9.99997 48.1901 9.92997 48.2001 9.85997C48.2001 9.80997 48.2001 9.75997 48.2001 9.71997C48.0601 9.76997 47.9201 9.81997 47.7901 9.86997C47.7701 9.99997 47.7501 10.14 47.7301 10.28C47.8801 10.23 48.0301 10.18 48.1801 10.13V10.12Z" fill="#EC2227"/>
<path d="M48.2101 8.88C48.1201 8.92 48.0401 8.96 47.9501 9C47.9201 9.13 47.8901 9.24 47.8701 9.32C47.8701 9.37 47.8601 9.43 47.8501 9.48C47.9701 9.43 48.0901 9.38 48.2201 9.33C48.2201 9.18 48.2201 9.02 48.2201 8.88H48.2101Z" fill="#EC2227"/>
<path d="M48.6 12.06C48.61 12.27 48.64 12.53 48.73 12.72C48.78 12.8 48.83 12.86 48.89 12.89C48.94 12.91 49.07 12.94 49.17 12.94C49.4 12.93 49.63 12.83 49.83 12.65C50.03 12.48 50.21 12.24 50.36 11.96C50.39 11.9 50.42 11.84 50.45 11.78V11.76C50.45 11.76 50.5 11.69 50.51 11.64C50.52 11.61 50.53 11.58 50.55 11.56C50.58 11.46 50.62 11.34 50.63 11.22C50.68 10.8 50.48 10.46 50.11 10.33C49.76 10.2 49.34 10.27 48.86 10.37C48.79 10.39 48.73 10.4 48.66 10.42H48.63L48.62 10.73C48.62 10.92 48.61 11.1 48.6 11.29C48.59 11.54 48.59 11.8 48.6 12.06Z" fill="#EC2227"/>
<path d="M48.0901 11.39C48.1001 11.2 48.1101 11.02 48.1301 10.83L48.1501 10.53C48.0001 10.57 47.8601 10.6 47.7201 10.63C47.7001 10.63 47.6801 10.64 47.6701 10.64C47.6001 11.12 47.5301 11.61 47.5101 12.11C47.5001 12.51 47.5101 13.09 47.7801 13.48C48.0401 13.85 48.5501 14.02 49.1401 13.95C49.7701 13.87 50.4801 13.51 51.0201 12.97C51.6001 12.4 52.0101 11.71 52.1301 11.1C52.2401 10.51 52.0801 9.96004 51.6901 9.60004C51.3301 9.27004 50.8101 9.10004 50.2701 9.14004C49.7101 9.20004 49.1501 9.39004 48.6501 9.54004C48.6501 9.61004 48.6501 9.67004 48.6501 9.74003C48.6501 9.81003 48.6501 9.89004 48.6501 9.97004C48.7301 9.95004 48.8001 9.92003 48.8801 9.90003C49.0801 9.85003 49.3401 9.78004 49.6101 9.74003C49.9001 9.69003 50.1801 9.71003 50.4301 9.78003C50.7101 9.86003 50.9401 10.02 51.1001 10.24C51.2601 10.46 51.3301 10.77 51.3001 11.12C51.2901 11.27 51.2501 11.44 51.1801 11.64C51.1701 11.67 51.1601 11.69 51.1501 11.71C51.1301 11.77 51.1101 11.82 51.0801 11.89C51.0401 11.97 51.0001 12.05 50.9501 12.13C50.7401 12.51 50.4901 12.81 50.2101 13.05C49.8901 13.33 49.4601 13.51 49.1001 13.51C49.0801 13.51 49.0601 13.51 49.0501 13.51C48.9501 13.51 48.8501 13.5 48.7901 13.47L48.6801 13.44C48.6801 13.44 48.5901 13.41 48.5501 13.38C48.4101 13.31 48.3001 13.19 48.2201 13.02C48.0901 12.75 48.0701 12.46 48.0601 12.19C48.0601 11.91 48.0701 11.63 48.0901 11.37V11.39Z" fill="#EC2227"/>
<path d="M51.47 13.37C50.76 14.04 49.87 14.47 49.09 14.54C48.31 14.61 47.64 14.34 47.34 13.83C47.04 13.33 47.04 12.73 47.08 12.2C47.12 11.7 47.2 11.23 47.29 10.76C47.24 10.77 47.18 10.79 47.13 10.8H47.08C47.01 10.83 46.94 10.85 46.88 10.86H46.87C46.87 10.86 46.83 10.87 46.8 10.88L46.78 10.95C46.72 11.22 46.64 11.57 46.59 11.94C46.54 12.31 46.5 12.76 46.56 13.21C46.62 13.72 46.79 14.12 47.07 14.42C47.38 14.76 47.87 15 48.48 15.1H48.51C48.51 15.1 48.52 15.11 48.53 15.11H48.73C48.81 15.13 48.88 15.13 48.95 15.13H49.21L49.48 15.07C49.86 15 50.24 14.87 50.59 14.7C50.97 14.51 51.35 14.28 51.7 14C52.03 13.73 52.36 13.4 52.67 13.03C53.29 12.27 53.69 11.46 53.81 10.74C53.85 10.33 53.83 9.99995 53.75 9.70995C53.63 9.35995 53.49 9.09995 53.31 8.90995C53.11 8.67995 52.87 8.49995 52.62 8.35995C52.37 8.21995 52.09 8.11995 51.79 8.05995C51.54 8.00995 51.24 7.98995 50.91 8.01995C50.59 8.05995 50.29 8.12995 50.01 8.19995C49.54 8.32995 49.07 8.49995 48.59 8.69995C48.6 8.84995 48.61 8.99995 48.62 9.15995C49.13 8.96995 49.71 8.75995 50.33 8.65995C51.05 8.56995 51.71 8.72995 52.18 9.12995C52.73 9.57995 52.96 10.28 52.82 11.05C52.67 11.84 52.17 12.69 51.45 13.37H51.47Z" fill="#EC2227"/>
<path d="M45.8401 14.08C45.9101 14.48 46.1001 15.04 46.6001 15.47C47.0201 15.83 47.6301 16.09 48.4701 16.26H48.4801L48.9301 16.3H49.0801C49.0801 16.3 49.1601 16.29 49.2001 16.29H49.2201C49.2801 16.29 49.3401 16.29 49.4001 16.29L49.7401 16.24C50.2901 16.14 50.7601 16 51.1801 15.8C52.1801 15.35 53.1601 14.61 53.9401 13.71C54.3601 13.24 54.7101 12.75 54.9801 12.27C55.1201 12.04 55.2301 11.8 55.3301 11.57L55.4101 11.4L55.5001 11.12C55.5001 11.12 55.5301 11.03 55.5501 10.97C55.5801 10.89 55.6101 10.8 55.6201 10.74C55.7301 10.28 55.7401 9.78996 55.6601 9.33996C55.5301 8.83996 55.3801 8.49996 55.1601 8.23996C55.0901 8.11996 54.9901 8.02996 54.9001 7.93996C54.8501 7.88996 54.8101 7.83996 54.7701 7.79996C54.7201 7.75996 54.6601 7.71996 54.6101 7.66996C54.5201 7.58996 54.4301 7.51996 54.3301 7.45996C54.0101 7.23996 53.6301 7.08996 53.3001 6.98996C52.9001 6.87996 52.5501 6.82996 52.2101 6.82996H52.2001C52.1401 6.82996 52.0901 6.82996 52.0301 6.82996H52.0201C52.0201 6.82996 51.9501 6.82996 51.9201 6.82996H51.7201L51.6501 6.85996C51.4401 6.88996 51.2501 6.92996 51.0801 6.96996C50.4401 7.11996 49.7901 7.35996 49.1501 7.68996C48.9501 7.79996 48.7401 7.90996 48.5101 8.02996C48.5301 8.14996 48.5601 8.26996 48.5701 8.38996C49.0901 8.13996 49.5501 7.94996 50.0301 7.79996C50.3101 7.71996 50.6701 7.60996 51.0101 7.55996C51.4001 7.49996 51.7401 7.49996 52.0601 7.54996C52.4201 7.59996 52.7501 7.68996 53.0501 7.83996C53.3501 7.96996 53.6201 8.15996 53.9001 8.43996C54.4501 9.01996 54.6901 9.79996 54.5801 10.65C54.4501 11.51 54.0001 12.44 53.2701 13.34C52.9101 13.77 52.5201 14.14 52.1201 14.45C51.7001 14.77 51.2601 15.04 50.8101 15.25C50.3801 15.44 49.9401 15.58 49.4801 15.65L49.1701 15.69C49.1001 15.69 49.0301 15.69 48.9701 15.69H48.8601C48.7701 15.69 48.6801 15.69 48.6001 15.68L48.3801 15.66C48.3801 15.66 48.3201 15.65 48.3101 15.64H48.3001C47.6301 15.51 47.0601 15.19 46.7101 14.76C46.4001 14.39 46.2301 13.9 46.1901 13.32C46.1501 12.83 46.2201 12.36 46.3001 11.95C46.3701 11.57 46.4701 11.24 46.5501 10.97C46.4201 11.01 46.2801 11.05 46.1401 11.1C46.1201 11.19 46.0901 11.28 46.0701 11.36C45.9901 11.68 45.8901 12.11 45.8301 12.6C45.7501 13.18 45.7601 13.67 45.8301 14.1L45.8401 14.08Z" fill="#EC2227"/>
<path d="M54.8701 5.85997C53.9301 5.55997 53.0201 5.50997 52.1601 5.69997C51.3401 5.86997 50.5201 6.16997 49.8001 6.57997C49.2401 6.89997 48.7601 7.22997 48.3701 7.49997C48.4001 7.57997 48.4301 7.66997 48.4601 7.75997C48.6701 7.62997 48.8801 7.50997 49.0701 7.39997C49.7601 7.01997 50.4401 6.72997 51.1101 6.54997C51.2901 6.49997 51.4901 6.44997 51.7101 6.40997L51.7901 6.38997C51.7901 6.38997 51.8101 6.38997 51.8401 6.38997L52.0301 6.36997C52.0301 6.36997 52.1001 6.36997 52.1401 6.35997C52.2101 6.34997 52.2801 6.33997 52.3601 6.33997C52.7401 6.31997 53.1401 6.35997 53.6201 6.45997C54.6001 6.70997 55.3401 7.14997 55.8201 7.78997C56.0801 8.08997 56.2801 8.48997 56.4401 9.05997C56.5601 9.61997 56.5501 10.16 56.4201 10.71C56.4101 10.81 56.3701 10.91 56.3501 10.99C56.3301 11.04 56.3201 11.08 56.3001 11.13L56.1901 11.46L56.1201 11.63C56.0001 11.9 55.8801 12.17 55.7201 12.44C55.4201 13 55.0301 13.54 54.5601 14.06C53.6701 15.06 52.5501 15.87 51.4101 16.36C50.9201 16.58 50.3901 16.73 49.7701 16.83L49.3801 16.88C49.2501 16.88 49.1201 16.88 49.0001 16.88C48.8801 16.88 48.7701 16.88 48.6401 16.86L48.3401 16.83C48.3401 16.83 48.3001 16.83 48.2901 16.82C47.4301 16.64 46.7501 16.31 46.2801 15.86C45.7301 15.34 45.5401 14.69 45.4801 14.23C45.4801 14.18 45.4701 14.14 45.4701 14.1V14.08C45.4601 13.99 45.4501 13.9 45.4501 13.8V13.34C45.4801 13.08 45.5001 12.84 45.5501 12.6C45.6401 12.1 45.7601 11.65 45.8601 11.33C45.8701 11.28 45.8901 11.24 45.9001 11.19L45.7301 11.25C45.6601 11.27 45.5901 11.31 45.5101 11.34C45.4701 11.48 45.4401 11.63 45.3901 11.79C45.2701 12.28 45.1801 12.76 45.1201 13.22C45.0401 13.86 45.0501 14.45 45.1701 14.96C45.2701 15.41 45.5301 16.05 46.1801 16.53C46.6801 16.92 47.4301 17.22 48.4501 17.45L49.0301 17.51H49.6101L50.0201 17.45C50.6601 17.36 50.9801 17.28 51.5301 17.05C51.7501 16.97 51.9601 16.86 52.1801 16.75H52.2001C52.2801 16.7 52.3701 16.65 52.4601 16.61C52.5201 16.57 52.5901 16.53 52.6601 16.49L52.7001 16.47C52.9201 16.34 53.1501 16.2 53.3501 16.04C53.9201 15.65 54.4701 15.17 55.0401 14.57C55.6001 14.01 56.0101 13.46 56.4301 12.79C59.1801 8.36997 55.8201 6.18997 54.8801 5.88997L54.8701 5.85997Z" fill="#EC2227"/>
<path d="M49.2901 0C43.3701 0 38.5801 4.8 38.5801 10.71C38.5801 16.62 43.3701 21.42 49.2901 21.42C55.2101 21.42 60.0001 16.63 60.0001 10.71C60.0001 4.79 55.2001 0 49.2901 0ZM55.6601 14.92C55.0301 15.56 54.4101 16.08 53.7701 16.51C53.5301 16.69 53.2701 16.83 53.0201 16.98C52.9401 17.03 52.8501 17.08 52.7701 17.13C52.6701 17.18 52.5701 17.22 52.4801 17.27C52.2401 17.39 51.9901 17.51 51.7301 17.6C51.1201 17.85 50.7201 17.93 50.0101 18.01L49.5501 18.05H48.8801L48.2901 17.97C48.0901 17.92 47.9301 17.88 47.7801 17.83H47.7401C47.6801 17.8 47.6101 17.78 47.5501 17.76C47.3701 17.72 47.2001 17.65 47.0401 17.57H47.0101C47.0101 17.57 46.9401 17.53 46.9101 17.51L46.6101 17.38C46.5401 17.35 46.4801 17.31 46.4201 17.27C46.3901 17.25 46.3601 17.23 46.3301 17.21C46.2901 17.18 46.2501 17.16 46.2001 17.13C46.0701 17.05 45.9401 16.96 45.8401 16.85C45.3001 16.4 44.9201 15.76 44.7901 15.04C44.6801 14.48 44.6901 13.87 44.8101 13.17C44.8901 12.69 45.0101 12.19 45.1501 11.7C45.1801 11.59 45.2101 11.48 45.2401 11.38C44.8001 11.55 44.2901 11.74 43.7101 11.9L43.6401 11.92C43.3201 12.01 43.0001 12.1 42.6501 12.17C42.2401 12.24 41.8901 12.25 41.5901 12.21C40.8701 12.11 40.3201 11.74 40.0301 11.16C39.8501 10.8 39.8101 10.4 39.8901 9.96L39.9101 9.89C39.9301 9.81 39.9401 9.73 39.9801 9.62C40.0101 9.5 40.0501 9.39 40.1001 9.26C40.1901 9.04 40.3001 8.82 40.4401 8.59C40.6701 8.21 40.9601 7.83 41.3101 7.48C41.5901 7.18 41.9101 6.92 42.2301 6.68C42.8501 6.23 43.3901 6.02 43.7301 5.9C43.7801 5.88 43.8301 5.86 43.8801 5.85C43.8801 5.83 43.8801 5.82 43.8801 5.8C43.8801 5.6 44.0501 5.43 44.2501 5.43C44.4501 5.43 44.6201 5.6 44.6201 5.8C44.6201 5.9 44.5801 5.99 44.5101 6.05C44.7501 5.99 45.0301 5.93 45.2901 5.9C45.6001 5.86 45.8601 5.86 46.0901 5.88C46.4901 5.9 46.8401 6 47.1401 6.17C47.1701 6.17 47.2101 6.19 47.2601 6.22C47.5101 6.33 47.9701 6.6 48.2801 7.26C48.6601 6.98 49.1301 6.63 49.7001 6.28C50.2401 5.95 51.1201 5.5 52.2201 5.25C53.1801 5.01 54.2001 5.03 55.2501 5.3C56.3601 5.6 60.2201 7.72 57.2101 12.93C57.0001 13.3 56.3001 14.27 55.6801 14.89L55.6601 14.92Z" fill="#EC2227"/>
<path d="M10.6 24.42H14.92C18.03 24.42 20.16 26.29 20.16 29.17C20.16 32.05 18.03 33.92 14.92 33.92H10.6V24.42ZM14.81 32.12C16.7 32.12 17.93 30.99 17.93 29.17C17.93 27.35 16.69 26.22 14.81 26.22H12.8V32.11H14.81V32.12Z" fill="white"/>
<path d="M21.22 29.17C21.22 26.31 23.42 24.26 26.38 24.26C28.02 24.26 29.39 24.86 30.29 25.94L28.88 27.24C28.24 26.51 27.44 26.13 26.49 26.13C24.71 26.13 23.45 27.38 23.45 29.17C23.45 30.96 24.71 32.21 26.49 32.21C27.44 32.21 28.24 31.83 28.88 31.08L30.29 32.38C29.39 33.48 28.02 34.08 26.37 34.08C23.42 34.08 21.23 32.03 21.23 29.17H21.22Z" fill="white"/>
<path d="M30.9299 32.99L31.6799 31.33C32.4799 31.91 33.6799 32.32 34.8199 32.32C36.1199 32.32 36.6499 31.89 36.6499 31.3C36.6499 29.52 31.1299 30.74 31.1299 27.21C31.1299 25.59 32.4299 24.25 35.1299 24.25C36.3199 24.25 37.5499 24.53 38.4299 25.09L37.7499 26.76C36.8699 26.26 35.9599 26.01 35.1199 26.01C33.8199 26.01 33.3099 26.5 33.3099 27.1C33.3099 28.85 38.8299 27.64 38.8299 31.13C38.8299 32.72 37.5099 34.08 34.7999 34.08C33.2899 34.08 31.7699 33.63 30.9299 32.98V32.99Z" fill="white"/>
<path d="M40.34 24.42H44.66C47.77 24.42 49.9 26.29 49.9 29.17C49.9 32.05 47.77 33.92 44.66 33.92H40.34V24.42ZM44.55 32.12C46.44 32.12 47.67 30.99 47.67 29.17C47.67 27.35 46.43 26.22 44.55 26.22H42.54V32.11H44.55V32.12Z" fill="white"/>
</g>
<defs>
<clipPath id="clip0_2695_2946">
<rect width="60" height="60" fill="white"/>
</clipPath>
</defs>
</svg>
