<svg width="60" height="60" viewBox="0 0 60 60" fill="none" xmlns="http://www.w3.org/2000/svg">
<g clip-path="url(#clip0_2696_3045)">
<path d="M30 60C46.5685 60 60 46.5685 60 30C60 13.4315 46.5685 0 30 0C13.4315 0 0 13.4315 0 30C0 46.5685 13.4315 60 30 60Z" fill="#F16B6F"/>
<path d="M18.49 33.92V28.29L15.72 32.93H14.74L11.99 28.41V33.92H9.95001V24.54H11.75L15.26 30.37L18.72 24.54H20.5L20.53 33.92H18.49Z" fill="black"/>
<path d="M22.17 29.22C22.17 26.39 24.34 24.37 27.26 24.37C28.88 24.37 30.24 24.96 31.12 26.03L29.73 27.32C29.1 26.6 28.31 26.22 27.37 26.22C25.61 26.22 24.37 27.45 24.37 29.22C24.37 30.99 25.62 32.22 27.37 32.22C28.31 32.22 29.1 31.84 29.73 31.11L31.12 32.4C30.24 33.49 28.88 34.08 27.25 34.08C24.34 34.08 22.17 32.06 22.17 29.23V29.22Z" fill="black"/>
<path d="M31.77 32.99L32.51 31.35C33.3 31.93 34.48 32.33 35.61 32.33C36.9 32.33 37.42 31.9 37.42 31.32C37.42 29.56 31.96 30.77 31.96 27.28C31.96 25.68 33.25 24.36 35.91 24.36C37.09 24.36 38.3 24.64 39.17 25.19L38.5 26.84C37.63 26.34 36.73 26.1 35.9 26.1C34.61 26.1 34.12 26.58 34.12 27.17C34.12 28.9 39.58 27.71 39.58 31.15C39.58 32.72 38.28 34.06 35.6 34.06C34.11 34.06 32.61 33.62 31.78 32.97L31.77 32.99Z" fill="black"/>
<path d="M41.06 24.53H45.32C48.39 24.53 50.49 26.38 50.49 29.22C50.49 32.06 48.39 33.91 45.32 33.91H41.06V24.53ZM45.22 32.13C47.08 32.13 48.3 31.02 48.3 29.22C48.3 27.42 47.08 26.31 45.22 26.31H43.24V32.13H45.22Z" fill="black"/>
<path d="M56.6279 18.0155C60.6855 13.958 60.6855 7.37941 56.6279 3.32186C52.5704 -0.735684 45.9918 -0.735686 41.9342 3.32186C37.8767 7.37941 37.8767 13.958 41.9342 18.0155C45.9918 22.0731 52.5704 22.0731 56.6279 18.0155Z" fill="white"/>
<path d="M44.13 6.17006C44.07 6.15006 44.01 6.11006 43.97 6.06006C43.91 6.08006 43.85 6.11006 43.78 6.14006C43.45 6.27006 42.94 6.53006 42.34 6.99006C42.04 7.22006 41.75 7.48006 41.49 7.76006C41.87 7.39006 42.29 7.07006 42.76 6.78006C43.21 6.51006 43.68 6.30006 44.13 6.17006Z" fill="#EC2227"/>
<path d="M41.71 9.53996C41.71 9.53996 41.71 9.54996 41.72 9.55996C41.84 9.67996 42.47 9.72996 43.14 9.60996C43.65 9.55996 44.7 9.21996 45.04 8.88996C45.09 8.83996 45.1 8.80996 45.11 8.79996C45.11 8.77996 45.09 8.72996 44.97 8.68996C44.67 8.56996 44.13 8.55996 43.52 8.64996C42.82 8.75996 42.06 9.14996 41.78 9.44996C41.73 9.50996 41.71 9.52996 41.71 9.53996Z" fill="#EC2227"/>
<path d="M45.39 10.94L45.42 10.84H45.39C44.69 11.16 43.93 11.47 43.08 11.67C42.63 11.79 42.17 11.83 41.77 11.78C41.66 11.77 41.55 11.74 41.45 11.72C41.54 11.75 41.64 11.77 41.73 11.78C42.02 11.83 42.34 11.83 42.68 11.78C43 11.73 43.33 11.65 43.65 11.58H43.7C44.3 11.42 44.88 11.26 45.33 11.12C45.35 11.06 45.37 11 45.39 10.94Z" fill="#EC2227"/>
<path d="M43.08 11.3C43.79 11.15 44.55 10.92 45.33 10.62C45.39 10.6 45.45 10.57 45.51 10.55L45.54 10.44C45.54 10.44 45.55 10.4 45.57 10.33C44.84 10.7 44.15 10.97 43.5 11.14C43.29 11.2 43.08 11.25 42.89 11.28C42.82 11.29 42.75 11.3 42.69 11.31H42.65L42.58 11.32C42.51 11.33 42.44 11.33 42.37 11.33H42.35C42.35 11.33 42.3 11.33 42.28 11.33H42.23C41.95 11.33 41.68 11.29 41.45 11.22C41.59 11.27 41.73 11.31 41.89 11.34C42.26 11.4 42.66 11.38 43.08 11.28V11.3Z" fill="#EC2227"/>
<path d="M43.55 8.31006C44.21 8.20006 45.09 8.18006 45.36 8.49006C45.44 8.58006 45.46 8.69006 45.43 8.82006C45.4 8.92006 45.33 9.03006 45.23 9.13006C44.79 9.56006 43.66 9.91006 43.11 9.96006C42.97 9.98006 42.65 10.0201 42.33 10.0201C42.24 10.0201 42.15 10.0201 42.07 10.0101C42.19 10.0301 42.31 10.0301 42.41 10.0401H42.54C42.85 10.0401 43.11 10.0201 43.37 9.98006C43.68 9.93006 44 9.84006 44.36 9.70006C44.82 9.52006 45.3 9.28006 45.79 8.99006C45.78 8.74006 45.71 8.54006 45.6 8.40006C45.45 8.21006 45.21 8.10006 44.9 8.08006L44.77 8.06006H44.4C44.34 8.08006 44.28 8.09006 44.21 8.10006H44.19C44.08 8.12006 43.97 8.13006 43.87 8.15006C43.58 8.20006 43.23 8.32006 42.82 8.52006C43.05 8.44006 43.3 8.37006 43.55 8.32006V8.31006Z" fill="#EC2227"/>
<path d="M43.51 10.79C44.47 10.56 45.22 10.25 45.58 10.08C45.6 10.07 45.63 10.06 45.65 10.04C45.66 10 45.67 9.95004 45.68 9.91004C45.69 9.87004 45.7 9.83004 45.71 9.79004C45.08 10.16 44.5 10.43 43.95 10.61C43.56 10.74 43.17 10.83 42.8 10.89C42.52 10.93 42.26 10.93 42.02 10.91C42.13 10.93 42.24 10.94 42.36 10.94C42.55 10.94 42.73 10.94 42.92 10.9L42.94 10.94V10.9C43.14 10.86 43.32 10.83 43.51 10.79Z" fill="#EC2227"/>
<path d="M44.42 10.04C44.03 10.21 43.67 10.32 43.34 10.39C43.09 10.44 42.85 10.47 42.61 10.49C42.69 10.49 42.77 10.49 42.85 10.48C43.2 10.44 43.57 10.37 43.93 10.26C44.69 10.04 45.34 9.72002 45.76 9.49002C45.77 9.41002 45.78 9.34002 45.78 9.27002C45.44 9.49002 44.96 9.79002 44.41 10.03L44.42 10.04Z" fill="#EC2227"/>
<path d="M45.61 11.03C45.72 10.99 45.85 10.94 45.97 10.9C46.02 10.76 46.06 10.63 46.09 10.53L46.02 10.56C45.91 10.62 45.78 10.68 45.64 10.74L45.6 10.87L45.55 11.05L45.6 11.03H45.61Z" fill="#EC2227"/>
<path d="M43.94 7.65995C44.14 7.62995 44.3 7.61995 44.48 7.59995H44.51H44.92L45.06 7.61995C45.43 7.66995 45.73 7.83995 45.91 8.10995C46.03 8.27995 46.1 8.49995 46.11 8.77995C46.19 8.71995 46.3 8.63995 46.42 8.55995C46.38 8.26995 46.28 8.01995 46.11 7.84995C45.9 7.63995 45.61 7.51995 45.26 7.49995C45.14 7.47995 45 7.48995 44.88 7.49995C44.81 7.49995 44.74 7.50995 44.68 7.50995C44.54 7.52995 44.37 7.55995 44.21 7.58995L44.06 7.61995C43.92 7.64995 43.77 7.68995 43.61 7.73995C43.72 7.70995 43.83 7.68995 43.94 7.66995V7.65995Z" fill="#EC2227"/>
<path d="M46.17 10.26C46.2 10.17 46.22 10.08 46.25 9.98995V9.94995C46.12 10.04 45.98 10.13 45.83 10.21C45.79 10.32 45.76 10.42 45.74 10.47H45.77C45.86 10.41 46 10.34 46.16 10.26H46.17Z" fill="#EC2227"/>
<path d="M45.93 9.91C46.05 9.84 46.18 9.77001 46.33 9.68001C46.34 9.63001 46.35 9.58 46.36 9.53C46.37 9.48 46.38 9.43 46.39 9.38C46.28 9.45 46.16 9.53 46.01 9.62C45.99 9.73 45.96 9.82 45.93 9.91Z" fill="#EC2227"/>
<path d="M46.1 9.06997C46.1 9.06997 46.1 9.07997 46.1 9.08997C46.1 9.15997 46.08 9.23997 46.07 9.32997C46.17 9.26997 46.26 9.21997 46.33 9.16997L46.41 9.11997C46.42 9.02997 46.42 8.92997 46.43 8.83997C46.35 8.89997 46.27 8.95997 46.18 9.01997L46.1 9.07997V9.06997Z" fill="#EC2227"/>
<path d="M46.55 10.69L46.64 10.66C46.69 10.5 46.74 10.36 46.78 10.25C46.65 10.3 46.52 10.35 46.41 10.4L46.32 10.44L46.29 10.52C46.27 10.62 46.24 10.72 46.21 10.81C46.27 10.79 46.31 10.77 46.33 10.77C46.39 10.75 46.47 10.72 46.55 10.69Z" fill="#EC2227"/>
<path d="M46.42 10.14L46.5 10.1C46.62 10.04 46.75 9.98002 46.89 9.92002C46.89 9.89002 46.9 9.86002 46.91 9.83002C46.93 9.74002 46.96 9.64002 46.98 9.52002C46.91 9.57002 46.83 9.60002 46.77 9.65002C46.71 9.69002 46.62 9.74002 46.53 9.79002C46.49 9.93002 46.45 10.06 46.42 10.14Z" fill="#EC2227"/>
<path d="M46.92 7.66005L46.79 7.45005C46.79 7.45005 46.73 7.38005 46.7 7.34005C46.68 7.32005 46.65 7.29005 46.63 7.27005C46.36 7.04005 46.01 6.92005 45.62 6.91005C45.47 6.89005 45.31 6.91005 45.16 6.92005C45.09 6.92005 45.02 6.93005 44.95 6.94005C44.81 6.96005 44.65 6.99005 44.5 7.02005C44.41 7.04005 44.32 7.06005 44.23 7.08005C44.06 7.12005 43.88 7.17005 43.7 7.23005C43.84 7.18005 43.98 7.15005 44.13 7.12005C44.2 7.11005 44.26 7.10005 44.32 7.09005H44.34C44.49 7.06005 44.63 7.04005 44.78 7.03005C44.84 7.03005 44.89 7.03005 44.93 7.03005H44.98C45.04 7.03005 45.1 7.03005 45.15 7.03005C45.26 7.03005 45.35 7.03005 45.42 7.05005C45.82 7.08005 46.18 7.25005 46.41 7.54005C46.62 7.79005 46.7 8.10005 46.72 8.35005C46.78 8.31005 46.83 8.28005 46.87 8.24005L46.92 8.21005C46.98 8.17005 47.03 8.14005 47.06 8.12005C47.04 7.98005 46.99 7.85005 46.94 7.71005L46.92 7.66005Z" fill="#EC2227"/>
<path d="M47.05 9.13004C47.06 9.06004 47.07 8.99004 47.08 8.92004C46.99 8.98004 46.89 9.04004 46.8 9.11004L46.67 9.19004C46.65 9.30004 46.63 9.40004 46.6 9.52004C46.63 9.50004 46.66 9.48004 46.68 9.47004C46.77 9.41004 46.88 9.34004 47.03 9.25004C47.03 9.21004 47.04 9.18004 47.05 9.13004Z" fill="#EC2227"/>
<path d="M46.88 8.51L46.74 8.60999C46.74 8.70999 46.73 8.81 46.72 8.91C46.82 8.85 46.92 8.78 47.01 8.72L47.1 8.66C47.1 8.57 47.1 8.47 47.1 8.37C47.03 8.42 46.96 8.46 46.89 8.51H46.88Z" fill="#EC2227"/>
<path d="M46.89 10.57C47.03 10.52 47.19 10.46 47.36 10.4L47.45 9.98999C47.29 10.05 47.14 10.11 47 10.16C46.98 10.24 46.94 10.38 46.89 10.57Z" fill="#EC2227"/>
<path d="M47.11 9.80005V9.82005C47.25 9.75005 47.39 9.69005 47.52 9.63005L47.57 9.42005C47.58 9.34005 47.6 9.26005 47.62 9.18005C47.55 9.21005 47.49 9.25005 47.43 9.27005C47.37 9.31005 47.3 9.34005 47.24 9.38005C47.2 9.55005 47.16 9.69005 47.12 9.80005H47.11Z" fill="#EC2227"/>
<path d="M47.73 8.5C47.6 8.58 47.47 8.66 47.36 8.73C47.35 8.85 47.32 8.97 47.3 9.08C47.31 9.08 47.32 9.07 47.33 9.06C47.44 9 47.55 8.93 47.67 8.87C47.69 8.74 47.71 8.62 47.73 8.5Z" fill="#EC2227"/>
<path d="M44.31 6.60994C44.39 6.59994 44.47 6.57994 44.55 6.55994H44.57C44.72 6.51994 44.89 6.48994 45.05 6.47994C45.12 6.47994 45.19 6.47994 45.26 6.46994C45.35 6.46994 45.45 6.45994 45.55 6.45994C45.63 6.45994 45.71 6.45994 45.79 6.47994C46.24 6.49994 46.64 6.66994 46.94 6.96994C46.96 6.99994 46.99 7.01994 47 7.03994C47.05 7.08994 47.1 7.13994 47.13 7.20994L47.26 7.45994V7.50994C47.31 7.64994 47.35 7.77994 47.37 7.92994C47.48 7.85994 47.59 7.77994 47.72 7.68994C47.72 7.67994 47.72 7.66994 47.72 7.65994C47.63 7.26994 47.42 6.94994 47.14 6.73994C46.84 6.50994 46.43 6.37994 45.95 6.36994C45.73 6.35994 45.49 6.36994 45.2 6.41994C44.95 6.45994 44.69 6.50994 44.41 6.57994C44.22 6.61994 44.03 6.67994 43.83 6.74994C44 6.69994 44.16 6.64994 44.33 6.61994L44.31 6.60994Z" fill="#EC2227"/>
<path d="M47.38 8.46004L47.77 8.20004V8.10004C47.77 8.04004 47.77 7.98004 47.76 7.92004C47.62 8.01004 47.5 8.10004 47.39 8.17004C47.39 8.27004 47.39 8.37004 47.39 8.46004H47.38Z" fill="#EC2227"/>
<path d="M48.1 7.97998C48.08 7.88998 48.06 7.80998 48.04 7.72998C48.05 7.81998 48.05 7.91998 48.06 7.99998L48.1 7.97998Z" fill="#EC2227"/>
<path d="M48.15 8.23999C48.15 8.23999 48.08 8.27999 48.05 8.29999C48.05 8.42999 48.03 8.55999 48.01 8.67999C48.07 8.64999 48.13 8.61999 48.19 8.58999C48.18 8.46999 48.17 8.34999 48.15 8.24999V8.23999Z" fill="#EC2227"/>
<path d="M48.18 10.12V10.07C48.19 9.99997 48.19 9.92997 48.2 9.85997C48.2 9.80997 48.2 9.75997 48.2 9.71997C48.06 9.76997 47.92 9.81997 47.79 9.86997C47.77 9.99997 47.75 10.14 47.73 10.28C47.88 10.23 48.03 10.18 48.18 10.13V10.12Z" fill="#EC2227"/>
<path d="M48.21 8.88C48.12 8.92 48.04 8.96 47.95 9C47.92 9.13 47.89 9.24 47.87 9.32C47.87 9.37 47.86 9.43 47.85 9.48C47.97 9.43 48.09 9.38 48.22 9.33C48.22 9.18 48.22 9.02 48.22 8.88H48.21Z" fill="#EC2227"/>
<path d="M48.6 12.06C48.61 12.27 48.64 12.53 48.73 12.72C48.78 12.8 48.83 12.86 48.89 12.89C48.94 12.91 49.07 12.94 49.17 12.94C49.4 12.93 49.63 12.83 49.83 12.65C50.03 12.48 50.21 12.24 50.36 11.96C50.39 11.9 50.42 11.84 50.45 11.78V11.76C50.45 11.76 50.5 11.69 50.51 11.64C50.52 11.61 50.53 11.58 50.55 11.56C50.58 11.46 50.62 11.34 50.63 11.22C50.68 10.8 50.48 10.46 50.11 10.33C49.76 10.2 49.34 10.27 48.86 10.37C48.79 10.39 48.73 10.4 48.66 10.42H48.63L48.62 10.73C48.62 10.92 48.61 11.1 48.6 11.29C48.59 11.54 48.59 11.8 48.6 12.06Z" fill="#EC2227"/>
<path d="M48.09 11.39C48.1 11.2 48.11 11.02 48.13 10.83L48.15 10.53C48 10.57 47.86 10.6 47.72 10.63C47.7 10.63 47.68 10.64 47.67 10.64C47.6 11.12 47.53 11.61 47.51 12.11C47.5 12.51 47.51 13.09 47.78 13.48C48.04 13.85 48.55 14.02 49.14 13.95C49.77 13.87 50.48 13.51 51.02 12.97C51.6 12.4 52.01 11.71 52.13 11.1C52.24 10.51 52.08 9.96004 51.69 9.60004C51.33 9.27004 50.81 9.10004 50.27 9.14004C49.71 9.20004 49.15 9.39004 48.65 9.54004C48.65 9.61004 48.65 9.67004 48.65 9.74003C48.65 9.81003 48.65 9.89004 48.65 9.97004C48.73 9.95004 48.8 9.92003 48.88 9.90003C49.08 9.85003 49.34 9.78004 49.61 9.74003C49.9 9.69003 50.18 9.71003 50.43 9.78003C50.71 9.86003 50.94 10.02 51.1 10.24C51.26 10.46 51.33 10.77 51.3 11.12C51.29 11.27 51.25 11.44 51.18 11.64C51.17 11.67 51.16 11.69 51.15 11.71C51.13 11.77 51.11 11.82 51.08 11.89C51.04 11.97 51 12.05 50.95 12.13C50.74 12.51 50.49 12.81 50.21 13.05C49.89 13.33 49.46 13.51 49.1 13.51C49.08 13.51 49.06 13.51 49.05 13.51C48.95 13.51 48.85 13.5 48.79 13.47L48.68 13.44C48.68 13.44 48.59 13.41 48.55 13.38C48.41 13.31 48.3 13.19 48.22 13.02C48.09 12.75 48.07 12.46 48.06 12.19C48.06 11.91 48.07 11.63 48.09 11.37V11.39Z" fill="#EC2227"/>
<path d="M51.47 13.37C50.76 14.04 49.87 14.47 49.09 14.54C48.31 14.61 47.64 14.34 47.34 13.83C47.04 13.33 47.04 12.73 47.08 12.2C47.12 11.7 47.2 11.23 47.29 10.76C47.24 10.77 47.18 10.79 47.13 10.8H47.08C47.01 10.83 46.94 10.85 46.88 10.86H46.87C46.87 10.86 46.83 10.87 46.8 10.88L46.78 10.95C46.72 11.22 46.64 11.57 46.59 11.94C46.54 12.31 46.5 12.76 46.56 13.21C46.62 13.72 46.79 14.12 47.07 14.42C47.38 14.76 47.87 15 48.48 15.1H48.51C48.51 15.1 48.52 15.11 48.53 15.11H48.73C48.81 15.13 48.88 15.13 48.95 15.13H49.21L49.48 15.07C49.86 15 50.24 14.87 50.59 14.7C50.97 14.51 51.35 14.28 51.7 14C52.03 13.73 52.36 13.4 52.67 13.03C53.29 12.27 53.69 11.46 53.81 10.74C53.85 10.33 53.83 9.99995 53.75 9.70995C53.63 9.35995 53.49 9.09995 53.31 8.90995C53.11 8.67995 52.87 8.49995 52.62 8.35995C52.37 8.21995 52.09 8.11995 51.79 8.05995C51.54 8.00995 51.24 7.98995 50.91 8.01995C50.59 8.05995 50.29 8.12995 50.01 8.19995C49.54 8.32995 49.07 8.49995 48.59 8.69995C48.6 8.84995 48.61 8.99995 48.62 9.15995C49.13 8.96995 49.71 8.75995 50.33 8.65995C51.05 8.56995 51.71 8.72995 52.18 9.12995C52.73 9.57995 52.96 10.28 52.82 11.05C52.67 11.84 52.17 12.69 51.45 13.37H51.47Z" fill="#EC2227"/>
<path d="M45.84 14.08C45.91 14.48 46.1 15.04 46.6 15.47C47.02 15.83 47.63 16.09 48.47 16.26H48.48L48.93 16.3H49.08C49.08 16.3 49.16 16.29 49.2 16.29H49.22C49.28 16.29 49.34 16.29 49.4 16.29L49.74 16.24C50.29 16.14 50.76 16 51.18 15.8C52.18 15.35 53.16 14.61 53.94 13.71C54.36 13.24 54.71 12.75 54.98 12.27C55.12 12.04 55.23 11.8 55.33 11.57L55.41 11.4L55.5 11.12C55.5 11.12 55.53 11.03 55.55 10.97C55.58 10.89 55.61 10.8 55.62 10.74C55.73 10.28 55.74 9.78996 55.66 9.33996C55.53 8.83996 55.38 8.49996 55.16 8.23996C55.09 8.11996 54.99 8.02996 54.9 7.93996C54.85 7.88996 54.81 7.83996 54.77 7.79996C54.72 7.75996 54.66 7.71996 54.61 7.66996C54.52 7.58996 54.43 7.51996 54.33 7.45996C54.01 7.23996 53.63 7.08996 53.3 6.98996C52.9 6.87996 52.55 6.82996 52.21 6.82996H52.2C52.14 6.82996 52.09 6.82996 52.03 6.82996H52.02C52.02 6.82996 51.95 6.82996 51.92 6.82996H51.72L51.65 6.85996C51.44 6.88996 51.25 6.92996 51.08 6.96996C50.44 7.11996 49.79 7.35996 49.15 7.68996C48.95 7.79996 48.74 7.90996 48.51 8.02996C48.53 8.14996 48.56 8.26996 48.57 8.38996C49.09 8.13996 49.55 7.94996 50.03 7.79996C50.31 7.71996 50.67 7.60996 51.01 7.55996C51.4 7.49996 51.74 7.49996 52.06 7.54996C52.42 7.59996 52.75 7.68996 53.05 7.83996C53.35 7.96996 53.62 8.15996 53.9 8.43996C54.45 9.01996 54.69 9.79996 54.58 10.65C54.45 11.51 54 12.44 53.27 13.34C52.91 13.77 52.52 14.14 52.12 14.45C51.7 14.77 51.26 15.04 50.81 15.25C50.38 15.44 49.94 15.58 49.48 15.65L49.17 15.69C49.1 15.69 49.03 15.69 48.97 15.69H48.86C48.77 15.69 48.68 15.69 48.6 15.68L48.38 15.66C48.38 15.66 48.32 15.65 48.31 15.64H48.3C47.63 15.51 47.06 15.19 46.71 14.76C46.4 14.39 46.23 13.9 46.19 13.32C46.15 12.83 46.22 12.36 46.3 11.95C46.37 11.57 46.47 11.24 46.55 10.97C46.42 11.01 46.28 11.05 46.14 11.1C46.12 11.19 46.09 11.28 46.07 11.36C45.99 11.68 45.89 12.11 45.83 12.6C45.75 13.18 45.76 13.67 45.83 14.1L45.84 14.08Z" fill="#EC2227"/>
<path d="M54.87 5.85997C53.93 5.55997 53.02 5.50997 52.16 5.69997C51.34 5.86997 50.52 6.16997 49.8 6.57997C49.24 6.89997 48.76 7.22997 48.37 7.49997C48.4 7.57997 48.43 7.66997 48.46 7.75997C48.67 7.62997 48.88 7.50997 49.07 7.39997C49.76 7.01997 50.44 6.72997 51.11 6.54997C51.29 6.49997 51.49 6.44997 51.71 6.40997L51.79 6.38997C51.79 6.38997 51.81 6.38997 51.84 6.38997L52.03 6.36997C52.03 6.36997 52.1 6.36997 52.14 6.35997C52.21 6.34997 52.28 6.33997 52.36 6.33997C52.74 6.31997 53.14 6.35997 53.62 6.45997C54.6 6.70997 55.34 7.14997 55.82 7.78997C56.08 8.08997 56.28 8.48997 56.44 9.05997C56.56 9.61997 56.55 10.16 56.42 10.71C56.41 10.81 56.37 10.91 56.35 10.99C56.33 11.04 56.32 11.08 56.3 11.13L56.19 11.46L56.12 11.63C56 11.9 55.88 12.17 55.72 12.44C55.42 13 55.03 13.54 54.56 14.06C53.67 15.06 52.55 15.87 51.41 16.36C50.92 16.58 50.39 16.73 49.77 16.83L49.38 16.88C49.25 16.88 49.12 16.88 49 16.88C48.88 16.88 48.77 16.88 48.64 16.86L48.34 16.83C48.34 16.83 48.3 16.83 48.29 16.82C47.43 16.64 46.75 16.31 46.28 15.86C45.73 15.34 45.54 14.69 45.48 14.23C45.48 14.18 45.47 14.14 45.47 14.1V14.08C45.46 13.99 45.45 13.9 45.45 13.8V13.34C45.48 13.08 45.5 12.84 45.55 12.6C45.64 12.1 45.76 11.65 45.86 11.33C45.87 11.28 45.89 11.24 45.9 11.19L45.73 11.25C45.66 11.27 45.59 11.31 45.51 11.34C45.47 11.48 45.44 11.63 45.39 11.79C45.27 12.28 45.18 12.76 45.12 13.22C45.04 13.86 45.05 14.45 45.17 14.96C45.27 15.41 45.53 16.05 46.18 16.53C46.68 16.92 47.43 17.22 48.45 17.45L49.03 17.51H49.61L50.02 17.45C50.66 17.36 50.98 17.28 51.53 17.05C51.75 16.97 51.96 16.86 52.18 16.75H52.2C52.28 16.7 52.37 16.65 52.46 16.61C52.52 16.57 52.59 16.53 52.66 16.49L52.7 16.47C52.92 16.34 53.15 16.2 53.35 16.04C53.92 15.65 54.47 15.17 55.04 14.57C55.6 14.01 56.01 13.46 56.43 12.79C59.18 8.36997 55.82 6.18997 54.88 5.88997L54.87 5.85997Z" fill="#EC2227"/>
<path d="M49.29 0C43.37 0 38.58 4.8 38.58 10.71C38.58 16.62 43.37 21.42 49.29 21.42C55.21 21.42 60 16.63 60 10.71C60 4.79 55.2 0 49.29 0ZM55.66 14.92C55.03 15.56 54.41 16.08 53.77 16.51C53.53 16.69 53.27 16.83 53.02 16.98C52.94 17.03 52.85 17.08 52.77 17.13C52.67 17.18 52.57 17.22 52.48 17.27C52.24 17.39 51.99 17.51 51.73 17.6C51.12 17.85 50.72 17.93 50.01 18.01L49.55 18.05H48.88L48.29 17.97C48.09 17.92 47.93 17.88 47.78 17.83H47.74C47.68 17.8 47.61 17.78 47.55 17.76C47.37 17.72 47.2 17.65 47.04 17.57H47.01C47.01 17.57 46.94 17.53 46.91 17.51L46.61 17.38C46.54 17.35 46.48 17.31 46.42 17.27C46.39 17.25 46.36 17.23 46.33 17.21C46.29 17.18 46.25 17.16 46.2 17.13C46.07 17.05 45.94 16.96 45.84 16.85C45.3 16.4 44.92 15.76 44.79 15.04C44.68 14.48 44.69 13.87 44.81 13.17C44.89 12.69 45.01 12.19 45.15 11.7C45.18 11.59 45.21 11.48 45.24 11.38C44.8 11.55 44.29 11.74 43.71 11.9L43.64 11.92C43.32 12.01 43 12.1 42.65 12.17C42.24 12.24 41.89 12.25 41.59 12.21C40.87 12.11 40.32 11.74 40.03 11.16C39.85 10.8 39.81 10.4 39.89 9.96L39.91 9.89C39.93 9.81 39.94 9.73 39.98 9.62C40.01 9.5 40.05 9.39 40.1 9.26C40.19 9.04 40.3 8.82 40.44 8.59C40.67 8.21 40.96 7.83 41.31 7.48C41.59 7.18 41.91 6.92 42.23 6.68C42.85 6.23 43.39 6.02 43.73 5.9C43.78 5.88 43.83 5.86 43.88 5.85C43.88 5.83 43.88 5.82 43.88 5.8C43.88 5.6 44.05 5.43 44.25 5.43C44.45 5.43 44.62 5.6 44.62 5.8C44.62 5.9 44.58 5.99 44.51 6.05C44.75 5.99 45.03 5.93 45.29 5.9C45.6 5.86 45.86 5.86 46.09 5.88C46.49 5.9 46.84 6 47.14 6.17C47.17 6.17 47.21 6.19 47.26 6.22C47.51 6.33 47.97 6.6 48.28 7.26C48.66 6.98 49.13 6.63 49.7 6.28C50.24 5.95 51.12 5.5 52.22 5.25C53.18 5.01 54.2 5.03 55.25 5.3C56.36 5.6 60.22 7.72 57.21 12.93C57 13.3 56.3 14.27 55.68 14.89L55.66 14.92Z" fill="#EC2227"/>
</g>
<defs>
<clipPath id="clip0_2696_3045">
<rect width="60" height="60" fill="white"/>
</clipPath>
</defs>
</svg>
